<?xml version='1.0' encoding='UTF-8'?>
<svg x="0px" y="0px" viewBox="0 0 32 32" version="1.1" xmlns="http://www.w3.org/2000/svg" xmlns:xlink="http://www.w3.org/1999/xlink" xml:space="preserve" id="Create_Doughnut_Chart" style="enable-background:new 0 0 32 32">
  <style type="text/css">
	.Blue{fill:#1177D7;}
	.Red{fill:#D11C1C;}
	.Yellow{fill:#FFB115;}
</style>
  <path d="M19.2,20.6c-0.9,0.7-2,1.1-3.2,1.3v8.1c3.4-0.2,6.5-1.6,8.9-3.7L19.2,20.6z" class="Yellow" />
  <path d="M26.3,5.1l-5.7,5.7c0.9,1.2,1.4,2.6,1.4,4.2c0,1.6-0.5,3-1.4,4.2l5.7,5.7c2.3-2.6,3.7-6.1,3.7-9.9  C30,11.2,28.6,7.8,26.3,5.1z" class="Blue" />
  <path d="M8,14.9c0-3.9,3.1-7,7-7c1.6,0,3,0.5,4.2,1.4l5.7-5.7C22.2,1.4,18.8,0,15,0C6.7,0,0,6.7,0,15  c0,7.9,6.2,14.4,14,14.9v-8.1C10.6,21.4,8,18.5,8,14.9z" class="Red" />
</svg>