<?xml version='1.0' encoding='UTF-8'?>
<svg x="0px" y="0px" viewBox="0 0 32 32" version="1.1" xmlns="http://www.w3.org/2000/svg" xmlns:xlink="http://www.w3.org/1999/xlink" xml:space="preserve" id="Layer_1" style="enable-background:new 0 0 32 32">
  <style type="text/css">
	.Green{fill:#039C23;}
	.Black{fill:#727272;}
	.Red{fill:#D11C1C;}
	.Yellow{fill:#FFB115;}
	.Blue{fill:#1177D7;}
	.White{fill:#FFFFFF;}
	.st0{opacity:0.5;}
	.st1{opacity:0.75;}
</style>
  <g id="GroupLabels">
    <rect x="4" y="10" width="16" height="12" class="Blue" />
    <rect x="22" y="10" width="6" height="12" class="Green" />
    <rect x="4" y="24" width="16" height="4" class="Red" />
    <rect x="22" y="24" width="6" height="4" class="Yellow" />
    <path d="M16,8H4V4h12V8z M32,1v30c0,0.5-0.5,1-1,1H1c-0.5,0-1-0.5-1-1V1c0-0.5,0.5-1,1-1h30C31.5,0,32,0.5,32,1z    M30,2H2v28h28V2z" class="Black" />
  </g>
</svg>